<?xml version="1.0" encoding="UTF-8" standalone="no"?>
<!DOCTYPE svg PUBLIC "-//W3C//DTD SVG 1.1//EN"
 "http://www.w3.org/Graphics/SVG/1.1/DTD/svg11.dtd">
<!-- Generated by graphviz version 2.43.0 (0)
 -->
<!-- Title: RAG_Pipeline Pages: 1 -->
<svg width="576pt" height="21pt"
 viewBox="0.00 0.00 576.00 20.96" xmlns="http://www.w3.org/2000/svg" xmlns:xlink="http://www.w3.org/1999/xlink">
<g id="graph0" class="graph" transform="scale(0.46 0.46) rotate(0) translate(4 42)">
<title>RAG_Pipeline</title>
<polygon fill="white" stroke="transparent" points="-4,4 -4,-42 1260,-42 1260,4 -4,4"/>
<!-- A -->
<g id="node1" class="node">
<title>A</title>
<path fill="lightblue" stroke="lightblue" d="M150,-38C150,-38 12,-38 12,-38 6,-38 0,-32 0,-26 0,-26 0,-12 0,-12 0,-6 6,0 12,0 12,0 150,0 150,0 156,0 162,-6 162,-12 162,-12 162,-26 162,-26 162,-32 156,-38 150,-38"/>
<text text-anchor="middle" x="81" y="-22.8" font-family="Arial" font-size="14.00">Website Crawling</text>
<text text-anchor="middle" x="81" y="-7.8" font-family="Arial" font-size="14.00">(Recursive URL Loader)</text>
</g>
<!-- B -->
<g id="node2" class="node">
<title>B</title>
<path fill="lightblue" stroke="lightblue" d="M374,-38C374,-38 210,-38 210,-38 204,-38 198,-32 198,-26 198,-26 198,-12 198,-12 198,-6 204,0 210,0 210,0 374,0 374,0 380,0 386,-6 386,-12 386,-12 386,-26 386,-26 386,-32 380,-38 374,-38"/>
<text text-anchor="middle" x="292" y="-22.8" font-family="Arial" font-size="14.00">HTML Cleaning &amp; Extraction</text>
<text text-anchor="middle" x="292" y="-7.8" font-family="Arial" font-size="14.00">(BeautifulSoup)</text>
</g>
<!-- A&#45;&gt;B -->
<g id="edge1" class="edge">
<title>A&#45;&gt;B</title>
<path fill="none" stroke="black" d="M162.21,-19C170.56,-19 179.14,-19 187.71,-19"/>
<polygon fill="black" stroke="black" points="187.74,-22.5 197.74,-19 187.74,-15.5 187.74,-22.5"/>
</g>
<!-- C -->
<g id="node3" class="node">
<title>C</title>
<path fill="lightblue" stroke="lightblue" d="M570,-38C570,-38 434,-38 434,-38 428,-38 422,-32 422,-26 422,-26 422,-12 422,-12 422,-6 428,0 434,0 434,0 570,0 570,0 576,0 582,-6 582,-12 582,-12 582,-26 582,-26 582,-32 576,-38 570,-38"/>
<text text-anchor="middle" x="502" y="-22.8" font-family="Arial" font-size="14.00">Document Splitting</text>
<text text-anchor="middle" x="502" y="-7.8" font-family="Arial" font-size="14.00">(Recursive Text Splitter)</text>
</g>
<!-- B&#45;&gt;C -->
<g id="edge2" class="edge">
<title>B&#45;&gt;C</title>
<path fill="none" stroke="black" d="M386.05,-19C394.51,-19 403.06,-19 411.49,-19"/>
<polygon fill="black" stroke="black" points="411.69,-22.5 421.69,-19 411.69,-15.5 411.69,-22.5"/>
</g>
<!-- D -->
<g id="node4" class="node">
<title>D</title>
<path fill="lightblue" stroke="lightblue" d="M770,-38C770,-38 630,-38 630,-38 624,-38 618,-32 618,-26 618,-26 618,-12 618,-12 618,-6 624,0 630,0 630,0 770,0 770,0 776,0 782,-6 782,-12 782,-12 782,-26 782,-26 782,-32 776,-38 770,-38"/>
<text text-anchor="middle" x="700" y="-22.8" font-family="Arial" font-size="14.00">Embeddings Generation</text>
<text text-anchor="middle" x="700" y="-7.8" font-family="Arial" font-size="14.00">(HuggingFace SBERT)</text>
</g>
<!-- C&#45;&gt;D -->
<g id="edge3" class="edge">
<title>C&#45;&gt;D</title>
<path fill="none" stroke="black" d="M582.16,-19C590.63,-19 599.3,-19 607.9,-19"/>
<polygon fill="black" stroke="black" points="607.95,-22.5 617.95,-19 607.95,-15.5 607.95,-22.5"/>
</g>
<!-- E -->
<g id="node5" class="node">
<title>E</title>
<path fill="lightblue" stroke="lightblue" d="M912,-38C912,-38 830,-38 830,-38 824,-38 818,-32 818,-26 818,-26 818,-12 818,-12 818,-6 824,0 830,0 830,0 912,0 912,0 918,0 924,-6 924,-12 924,-12 924,-26 924,-26 924,-32 918,-38 912,-38"/>
<text text-anchor="middle" x="871" y="-22.8" font-family="Arial" font-size="14.00">Vector Storage</text>
<text text-anchor="middle" x="871" y="-7.8" font-family="Arial" font-size="14.00">(ChromaDB)</text>
</g>
<!-- D&#45;&gt;E -->
<g id="edge4" class="edge">
<title>D&#45;&gt;E</title>
<path fill="none" stroke="black" d="M782.04,-19C790.71,-19 799.43,-19 807.83,-19"/>
<polygon fill="black" stroke="black" points="807.9,-22.5 817.9,-19 807.9,-15.5 807.9,-22.5"/>
</g>
<!-- F -->
<g id="node6" class="node">
<title>F</title>
<path fill="lightblue" stroke="lightblue" d="M1077,-38C1077,-38 972,-38 972,-38 966,-38 960,-32 960,-26 960,-26 960,-12 960,-12 960,-6 966,0 972,0 972,0 1077,0 1077,0 1083,0 1089,-6 1089,-12 1089,-12 1089,-26 1089,-26 1089,-32 1083,-38 1077,-38"/>
<text text-anchor="middle" x="1024.5" y="-22.8" font-family="Arial" font-size="14.00">Retriever</text>
<text text-anchor="middle" x="1024.5" y="-7.8" font-family="Arial" font-size="14.00">(Semantic Search)</text>
</g>
<!-- E&#45;&gt;F -->
<g id="edge5" class="edge">
<title>E&#45;&gt;F</title>
<path fill="none" stroke="black" d="M924.14,-19C932.38,-19 941.04,-19 949.66,-19"/>
<polygon fill="black" stroke="black" points="949.75,-22.5 959.75,-19 949.75,-15.5 949.75,-22.5"/>
</g>
<!-- G -->
<g id="node7" class="node">
<title>G</title>
<path fill="lightblue" stroke="lightblue" d="M1244,-38C1244,-38 1137,-38 1137,-38 1131,-38 1125,-32 1125,-26 1125,-26 1125,-12 1125,-12 1125,-6 1131,0 1137,0 1137,0 1244,0 1244,0 1250,0 1256,-6 1256,-12 1256,-12 1256,-26 1256,-26 1256,-32 1250,-38 1244,-38"/>
<text text-anchor="middle" x="1190.5" y="-22.8" font-family="Arial" font-size="14.00">RAG Answering</text>
<text text-anchor="middle" x="1190.5" y="-7.8" font-family="Arial" font-size="14.00">(LLM with Context)</text>
</g>
<!-- F&#45;&gt;G -->
<g id="edge6" class="edge">
<title>F&#45;&gt;G</title>
<path fill="none" stroke="black" d="M1089.38,-19C1097.69,-19 1106.26,-19 1114.73,-19"/>
<polygon fill="black" stroke="black" points="1114.99,-22.5 1124.99,-19 1114.99,-15.5 1114.99,-22.5"/>
</g>
</g>
</svg>
